<mxfile host="Electron" modified="2024-03-28T11:30:05.865Z" agent="Mozilla/5.0 (Windows NT 10.0; Win64; x64) AppleWebKit/537.36 (KHTML, like Gecko) draw.io/24.1.0 Chrome/120.0.6099.109 Electron/28.1.0 Safari/537.36" etag="8CXw-OwRU6-89Me2uv49" version="24.1.0" type="device">
  <diagram name="Page-1" id="VbcfFoYDxe7azpGWgdXG">
    <mxGraphModel dx="1890" dy="1772" grid="1" gridSize="10" guides="1" tooltips="1" connect="1" arrows="1" fold="1" page="1" pageScale="1" pageWidth="850" pageHeight="1100" math="0" shadow="0">
      <root>
        <mxCell id="0" />
        <mxCell id="1" parent="0" />
        <mxCell id="0HHCoPCrTV0M4bE5JKeK-128" style="edgeStyle=orthogonalEdgeStyle;rounded=0;orthogonalLoop=1;jettySize=auto;html=1;exitX=1;exitY=0.5;exitDx=0;exitDy=0;entryX=0.5;entryY=0;entryDx=0;entryDy=0;endArrow=none;endFill=0;" parent="1" source="0HHCoPCrTV0M4bE5JKeK-2" target="0HHCoPCrTV0M4bE5JKeK-127" edge="1">
          <mxGeometry relative="1" as="geometry" />
        </mxCell>
        <mxCell id="0HHCoPCrTV0M4bE5JKeK-2" value="Shkolla" style="rounded=0;whiteSpace=wrap;html=1;fillColor=#e6d0de;strokeColor=#996185;gradientColor=#d5739d;" parent="1" vertex="1">
          <mxGeometry x="280" y="90" width="160" height="70" as="geometry" />
        </mxCell>
        <mxCell id="0HHCoPCrTV0M4bE5JKeK-8" style="edgeStyle=orthogonalEdgeStyle;rounded=0;orthogonalLoop=1;jettySize=auto;html=1;exitX=1;exitY=1;exitDx=0;exitDy=0;entryX=0.25;entryY=0;entryDx=0;entryDy=0;endArrow=none;endFill=0;" parent="1" source="0HHCoPCrTV0M4bE5JKeK-3" target="0HHCoPCrTV0M4bE5JKeK-2" edge="1">
          <mxGeometry relative="1" as="geometry">
            <Array as="points">
              <mxPoint x="290" y="16" />
              <mxPoint x="290" y="70" />
              <mxPoint x="320" y="70" />
            </Array>
          </mxGeometry>
        </mxCell>
        <mxCell id="0HHCoPCrTV0M4bE5JKeK-3" value="ID_Shkolla" style="ellipse;whiteSpace=wrap;html=1;fillColor=#dae8fc;gradientColor=#7ea6e0;strokeColor=#6c8ebf;" parent="1" vertex="1">
          <mxGeometry x="130" y="-35" width="110" height="60" as="geometry" />
        </mxCell>
        <mxCell id="0HHCoPCrTV0M4bE5JKeK-10" style="edgeStyle=orthogonalEdgeStyle;rounded=0;orthogonalLoop=1;jettySize=auto;html=1;exitX=0;exitY=1;exitDx=0;exitDy=0;entryX=0.75;entryY=0;entryDx=0;entryDy=0;endArrow=none;endFill=0;" parent="1" source="0HHCoPCrTV0M4bE5JKeK-5" target="0HHCoPCrTV0M4bE5JKeK-2" edge="1">
          <mxGeometry relative="1" as="geometry" />
        </mxCell>
        <mxCell id="0HHCoPCrTV0M4bE5JKeK-5" value="Adresa" style="ellipse;whiteSpace=wrap;html=1;fillColor=#dae8fc;gradientColor=#7ea6e0;strokeColor=#6c8ebf;" parent="1" vertex="1">
          <mxGeometry x="470" width="110" height="60" as="geometry" />
        </mxCell>
        <mxCell id="0HHCoPCrTV0M4bE5JKeK-9" style="edgeStyle=orthogonalEdgeStyle;rounded=0;orthogonalLoop=1;jettySize=auto;html=1;exitX=0.5;exitY=1;exitDx=0;exitDy=0;entryX=0.5;entryY=0;entryDx=0;entryDy=0;endArrow=none;endFill=0;" parent="1" source="0HHCoPCrTV0M4bE5JKeK-6" target="0HHCoPCrTV0M4bE5JKeK-2" edge="1">
          <mxGeometry relative="1" as="geometry" />
        </mxCell>
        <mxCell id="0HHCoPCrTV0M4bE5JKeK-6" value="Emri" style="ellipse;whiteSpace=wrap;html=1;fillColor=#dae8fc;gradientColor=#7ea6e0;strokeColor=#6c8ebf;" parent="1" vertex="1">
          <mxGeometry x="305" y="-30" width="110" height="60" as="geometry" />
        </mxCell>
        <mxCell id="0HHCoPCrTV0M4bE5JKeK-13" style="edgeStyle=orthogonalEdgeStyle;rounded=0;orthogonalLoop=1;jettySize=auto;html=1;exitX=0.5;exitY=1;exitDx=0;exitDy=0;endArrow=none;endFill=0;entryX=0;entryY=0;entryDx=0;entryDy=0;" parent="1" source="0HHCoPCrTV0M4bE5JKeK-7" target="0HHCoPCrTV0M4bE5JKeK-5" edge="1">
          <mxGeometry relative="1" as="geometry" />
        </mxCell>
        <mxCell id="0HHCoPCrTV0M4bE5JKeK-7" value="Qyteti" style="ellipse;whiteSpace=wrap;html=1;fillColor=#dae8fc;gradientColor=#7ea6e0;strokeColor=#6c8ebf;" parent="1" vertex="1">
          <mxGeometry x="440" y="-70" width="100" height="50" as="geometry" />
        </mxCell>
        <mxCell id="0HHCoPCrTV0M4bE5JKeK-15" style="edgeStyle=orthogonalEdgeStyle;rounded=0;orthogonalLoop=1;jettySize=auto;html=1;exitX=0;exitY=0.5;exitDx=0;exitDy=0;entryX=1;entryY=0;entryDx=0;entryDy=0;endArrow=none;endFill=0;" parent="1" source="0HHCoPCrTV0M4bE5JKeK-11" target="0HHCoPCrTV0M4bE5JKeK-5" edge="1">
          <mxGeometry relative="1" as="geometry" />
        </mxCell>
        <mxCell id="0HHCoPCrTV0M4bE5JKeK-11" value="ZIP Code" style="ellipse;whiteSpace=wrap;html=1;fillColor=#dae8fc;gradientColor=#7ea6e0;strokeColor=#6c8ebf;" parent="1" vertex="1">
          <mxGeometry x="620" y="-25" width="100" height="50" as="geometry" />
        </mxCell>
        <mxCell id="0HHCoPCrTV0M4bE5JKeK-12" value="Rruga" style="ellipse;whiteSpace=wrap;html=1;fillColor=#dae8fc;gradientColor=#7ea6e0;strokeColor=#6c8ebf;" parent="1" vertex="1">
          <mxGeometry x="550" y="-80" width="100" height="50" as="geometry" />
        </mxCell>
        <mxCell id="0HHCoPCrTV0M4bE5JKeK-14" style="edgeStyle=orthogonalEdgeStyle;rounded=0;orthogonalLoop=1;jettySize=auto;html=1;exitX=0;exitY=1;exitDx=0;exitDy=0;entryX=0.642;entryY=0.05;entryDx=0;entryDy=0;entryPerimeter=0;endArrow=none;endFill=0;" parent="1" source="0HHCoPCrTV0M4bE5JKeK-12" target="0HHCoPCrTV0M4bE5JKeK-5" edge="1">
          <mxGeometry relative="1" as="geometry" />
        </mxCell>
        <mxCell id="0HHCoPCrTV0M4bE5JKeK-17" style="edgeStyle=orthogonalEdgeStyle;rounded=0;orthogonalLoop=1;jettySize=auto;html=1;entryX=0;entryY=0.25;entryDx=0;entryDy=0;endArrow=none;endFill=0;" parent="1" source="0HHCoPCrTV0M4bE5JKeK-16" target="0HHCoPCrTV0M4bE5JKeK-2" edge="1">
          <mxGeometry relative="1" as="geometry" />
        </mxCell>
        <mxCell id="0HHCoPCrTV0M4bE5JKeK-16" value="Nr Kontaktues" style="ellipse;whiteSpace=wrap;html=1;fillColor=#dae8fc;gradientColor=#7ea6e0;strokeColor=#6c8ebf;" parent="1" vertex="1">
          <mxGeometry x="110" y="40" width="110" height="60" as="geometry" />
        </mxCell>
        <mxCell id="0HHCoPCrTV0M4bE5JKeK-18" value="Nr Kontaktues" style="ellipse;whiteSpace=wrap;html=1;fillColor=#dae8fc;gradientColor=#7ea6e0;strokeColor=#6c8ebf;" parent="1" vertex="1">
          <mxGeometry x="115" y="45" width="100" height="50" as="geometry" />
        </mxCell>
        <mxCell id="0HHCoPCrTV0M4bE5JKeK-20" style="edgeStyle=orthogonalEdgeStyle;rounded=0;orthogonalLoop=1;jettySize=auto;html=1;exitX=0.5;exitY=0;exitDx=0;exitDy=0;entryX=0.5;entryY=1;entryDx=0;entryDy=0;" parent="1" source="0HHCoPCrTV0M4bE5JKeK-19" target="0HHCoPCrTV0M4bE5JKeK-2" edge="1">
          <mxGeometry relative="1" as="geometry" />
        </mxCell>
        <mxCell id="0HHCoPCrTV0M4bE5JKeK-21" style="edgeStyle=orthogonalEdgeStyle;rounded=0;orthogonalLoop=1;jettySize=auto;html=1;exitX=0.5;exitY=1;exitDx=0;exitDy=0;" parent="1" source="0HHCoPCrTV0M4bE5JKeK-19" target="0HHCoPCrTV0M4bE5JKeK-22" edge="1">
          <mxGeometry relative="1" as="geometry">
            <mxPoint x="360" y="440" as="targetPoint" />
          </mxGeometry>
        </mxCell>
        <mxCell id="0HHCoPCrTV0M4bE5JKeK-19" value="Punon" style="rhombus;whiteSpace=wrap;html=1;fillColor=#fff2cc;gradientColor=#ffd966;strokeColor=#d6b656;" parent="1" vertex="1">
          <mxGeometry x="300" y="250" width="120" height="110" as="geometry" />
        </mxCell>
        <mxCell id="0HHCoPCrTV0M4bE5JKeK-42" style="edgeStyle=orthogonalEdgeStyle;rounded=0;orthogonalLoop=1;jettySize=auto;html=1;exitX=0.5;exitY=1;exitDx=0;exitDy=0;endArrow=none;endFill=0;" parent="1" source="0HHCoPCrTV0M4bE5JKeK-22" target="0HHCoPCrTV0M4bE5JKeK-43" edge="1">
          <mxGeometry relative="1" as="geometry">
            <mxPoint x="360.181818181818" y="560" as="targetPoint" />
          </mxGeometry>
        </mxCell>
        <mxCell id="0HHCoPCrTV0M4bE5JKeK-22" value="Stafi" style="rounded=0;whiteSpace=wrap;html=1;fillColor=#e6d0de;gradientColor=#d5739d;strokeColor=#996185;" parent="1" vertex="1">
          <mxGeometry x="285" y="430" width="150" height="70" as="geometry" />
        </mxCell>
        <mxCell id="0HHCoPCrTV0M4bE5JKeK-31" style="edgeStyle=orthogonalEdgeStyle;rounded=0;orthogonalLoop=1;jettySize=auto;html=1;exitX=0.5;exitY=1;exitDx=0;exitDy=0;entryX=0.5;entryY=0;entryDx=0;entryDy=0;" parent="1" source="0HHCoPCrTV0M4bE5JKeK-23" target="0HHCoPCrTV0M4bE5JKeK-33" edge="1">
          <mxGeometry relative="1" as="geometry">
            <mxPoint x="360" y="780" as="targetPoint" />
            <Array as="points">
              <mxPoint x="595" y="790" />
              <mxPoint x="360" y="790" />
            </Array>
          </mxGeometry>
        </mxCell>
        <mxCell id="0HHCoPCrTV0M4bE5JKeK-50" style="edgeStyle=orthogonalEdgeStyle;rounded=0;orthogonalLoop=1;jettySize=auto;html=1;exitX=1;exitY=0.5;exitDx=0;exitDy=0;entryX=0.5;entryY=0;entryDx=0;entryDy=0;endArrow=none;endFill=0;" parent="1" source="0HHCoPCrTV0M4bE5JKeK-23" target="0HHCoPCrTV0M4bE5JKeK-49" edge="1">
          <mxGeometry relative="1" as="geometry" />
        </mxCell>
        <mxCell id="0HHCoPCrTV0M4bE5JKeK-23" value="Stafi Teknik" style="rounded=0;whiteSpace=wrap;html=1;fillColor=#e6d0de;gradientColor=#d5739d;strokeColor=#996185;" parent="1" vertex="1">
          <mxGeometry x="520" y="680" width="150" height="70" as="geometry" />
        </mxCell>
        <mxCell id="0HHCoPCrTV0M4bE5JKeK-97" style="edgeStyle=orthogonalEdgeStyle;rounded=0;orthogonalLoop=1;jettySize=auto;html=1;exitX=0.25;exitY=1;exitDx=0;exitDy=0;endArrow=none;endFill=0;startArrow=none;startFill=0;entryX=0.5;entryY=0;entryDx=0;entryDy=0;" parent="1" source="0HHCoPCrTV0M4bE5JKeK-24" target="0HHCoPCrTV0M4bE5JKeK-98" edge="1">
          <mxGeometry relative="1" as="geometry">
            <mxPoint x="88.36363636363603" y="880" as="targetPoint" />
            <Array as="points">
              <mxPoint x="88" y="880" />
            </Array>
          </mxGeometry>
        </mxCell>
        <mxCell id="0HHCoPCrTV0M4bE5JKeK-24" value="Profesori" style="rounded=0;whiteSpace=wrap;html=1;fillColor=#e6d0de;gradientColor=#d5739d;strokeColor=#996185;" parent="1" vertex="1">
          <mxGeometry x="50" y="690" width="150" height="70" as="geometry" />
        </mxCell>
        <mxCell id="0HHCoPCrTV0M4bE5JKeK-26" style="edgeStyle=orthogonalEdgeStyle;rounded=0;orthogonalLoop=1;jettySize=auto;html=1;exitX=1;exitY=0.5;exitDx=0;exitDy=0;entryX=0;entryY=0.5;entryDx=0;entryDy=0;endArrow=none;endFill=0;" parent="1" source="0HHCoPCrTV0M4bE5JKeK-25" target="0HHCoPCrTV0M4bE5JKeK-22" edge="1">
          <mxGeometry relative="1" as="geometry" />
        </mxCell>
        <mxCell id="T7-lwO-HggSbHTCkCa26-41" style="edgeStyle=orthogonalEdgeStyle;rounded=0;orthogonalLoop=1;jettySize=auto;html=1;exitX=0;exitY=0.5;exitDx=0;exitDy=0;entryX=1;entryY=0.5;entryDx=0;entryDy=0;" parent="1" source="0HHCoPCrTV0M4bE5JKeK-25" target="0HHCoPCrTV0M4bE5JKeK-84" edge="1">
          <mxGeometry relative="1" as="geometry" />
        </mxCell>
        <mxCell id="0HHCoPCrTV0M4bE5JKeK-25" value="Menaxhon" style="rhombus;whiteSpace=wrap;html=1;fillColor=#fff2cc;gradientColor=#ffd966;strokeColor=#d6b656;" parent="1" vertex="1">
          <mxGeometry x="90" y="410" width="120" height="110" as="geometry" />
        </mxCell>
        <mxCell id="0HHCoPCrTV0M4bE5JKeK-34" style="edgeStyle=orthogonalEdgeStyle;rounded=0;orthogonalLoop=1;jettySize=auto;html=1;exitX=0.5;exitY=1;exitDx=0;exitDy=0;entryX=0.5;entryY=0;entryDx=0;entryDy=0;endArrow=none;endFill=0;" parent="1" source="0HHCoPCrTV0M4bE5JKeK-33" target="0HHCoPCrTV0M4bE5JKeK-35" edge="1">
          <mxGeometry relative="1" as="geometry">
            <mxPoint x="360" y="1020" as="targetPoint" />
          </mxGeometry>
        </mxCell>
        <mxCell id="0HHCoPCrTV0M4bE5JKeK-33" value="Kane" style="rhombus;whiteSpace=wrap;html=1;fillColor=#fff2cc;gradientColor=#ffd966;strokeColor=#d6b656;" parent="1" vertex="1">
          <mxGeometry x="300" y="840" width="120" height="110" as="geometry" />
        </mxCell>
        <mxCell id="T7-lwO-HggSbHTCkCa26-13" style="edgeStyle=orthogonalEdgeStyle;rounded=0;orthogonalLoop=1;jettySize=auto;html=1;exitX=0.5;exitY=1;exitDx=0;exitDy=0;endArrow=none;endFill=0;" parent="1" source="0HHCoPCrTV0M4bE5JKeK-35" target="T7-lwO-HggSbHTCkCa26-11" edge="1">
          <mxGeometry relative="1" as="geometry" />
        </mxCell>
        <mxCell id="0HHCoPCrTV0M4bE5JKeK-35" value="Orari" style="rounded=0;whiteSpace=wrap;html=1;fillColor=#e6d0de;gradientColor=#d5739d;strokeColor=#996185;" parent="1" vertex="1">
          <mxGeometry x="285" y="1022.44" width="150" height="70" as="geometry" />
        </mxCell>
        <mxCell id="0HHCoPCrTV0M4bE5JKeK-39" style="edgeStyle=orthogonalEdgeStyle;rounded=0;orthogonalLoop=1;jettySize=auto;html=1;exitX=0;exitY=0.5;exitDx=0;exitDy=0;entryX=1;entryY=0.25;entryDx=0;entryDy=0;endArrow=none;endFill=0;" parent="1" source="0HHCoPCrTV0M4bE5JKeK-38" target="0HHCoPCrTV0M4bE5JKeK-35" edge="1">
          <mxGeometry relative="1" as="geometry" />
        </mxCell>
        <mxCell id="0HHCoPCrTV0M4bE5JKeK-38" value="Orari" style="ellipse;whiteSpace=wrap;html=1;fillColor=#dae8fc;gradientColor=#7ea6e0;strokeColor=#6c8ebf;" parent="1" vertex="1">
          <mxGeometry x="500" y="1010" width="110" height="60" as="geometry" />
        </mxCell>
        <mxCell id="0HHCoPCrTV0M4bE5JKeK-45" style="edgeStyle=orthogonalEdgeStyle;rounded=0;orthogonalLoop=1;jettySize=auto;html=1;exitX=1;exitY=0.5;exitDx=0;exitDy=0;entryX=0.5;entryY=0;entryDx=0;entryDy=0;endArrow=none;endFill=0;" parent="1" source="0HHCoPCrTV0M4bE5JKeK-43" target="0HHCoPCrTV0M4bE5JKeK-24" edge="1">
          <mxGeometry relative="1" as="geometry" />
        </mxCell>
        <mxCell id="0HHCoPCrTV0M4bE5JKeK-46" style="edgeStyle=orthogonalEdgeStyle;rounded=0;orthogonalLoop=1;jettySize=auto;html=1;exitX=1;exitY=0.5;exitDx=0;exitDy=0;entryX=0.5;entryY=0;entryDx=0;entryDy=0;endArrow=none;endFill=0;" parent="1" source="0HHCoPCrTV0M4bE5JKeK-43" target="0HHCoPCrTV0M4bE5JKeK-23" edge="1">
          <mxGeometry relative="1" as="geometry">
            <Array as="points">
              <mxPoint x="360" y="660" />
              <mxPoint x="595" y="660" />
            </Array>
          </mxGeometry>
        </mxCell>
        <mxCell id="0HHCoPCrTV0M4bE5JKeK-43" value="" style="triangle;whiteSpace=wrap;html=1;rotation=90;fillColor=#d5e8d4;gradientColor=#97d077;strokeColor=#82b366;" parent="1" vertex="1">
          <mxGeometry x="315.09000000000003" y="510" width="89.82" height="154.91" as="geometry" />
        </mxCell>
        <mxCell id="0HHCoPCrTV0M4bE5JKeK-44" value="IS A" style="text;html=1;align=center;verticalAlign=middle;whiteSpace=wrap;rounded=0;" parent="1" vertex="1">
          <mxGeometry x="302.5" y="550" width="115" height="60" as="geometry" />
        </mxCell>
        <mxCell id="0HHCoPCrTV0M4bE5JKeK-57" style="edgeStyle=orthogonalEdgeStyle;rounded=0;orthogonalLoop=1;jettySize=auto;html=1;exitX=1;exitY=0.5;exitDx=0;exitDy=0;entryX=0.5;entryY=0;entryDx=0;entryDy=0;endArrow=none;endFill=0;" parent="1" source="0HHCoPCrTV0M4bE5JKeK-48" target="0HHCoPCrTV0M4bE5JKeK-55" edge="1">
          <mxGeometry relative="1" as="geometry" />
        </mxCell>
        <mxCell id="0HHCoPCrTV0M4bE5JKeK-48" value="" style="triangle;whiteSpace=wrap;html=1;rotation=90;fillColor=#d5e8d4;gradientColor=#97d077;strokeColor=#82b366;" parent="1" vertex="1">
          <mxGeometry x="980" y="755.09" width="89.82" height="154.91" as="geometry" />
        </mxCell>
        <mxCell id="0HHCoPCrTV0M4bE5JKeK-49" value="IS A" style="text;html=1;align=center;verticalAlign=middle;whiteSpace=wrap;rounded=0;" parent="1" vertex="1">
          <mxGeometry x="967.41" y="787.45" width="115" height="60" as="geometry" />
        </mxCell>
        <mxCell id="0HHCoPCrTV0M4bE5JKeK-56" style="edgeStyle=orthogonalEdgeStyle;rounded=0;orthogonalLoop=1;jettySize=auto;html=1;exitX=0.5;exitY=0;exitDx=0;exitDy=0;entryX=1;entryY=0.5;entryDx=0;entryDy=0;endArrow=none;endFill=0;" parent="1" source="0HHCoPCrTV0M4bE5JKeK-54" target="0HHCoPCrTV0M4bE5JKeK-48" edge="1">
          <mxGeometry relative="1" as="geometry" />
        </mxCell>
        <mxCell id="0HHCoPCrTV0M4bE5JKeK-54" value="Mirmbajtesi" style="rounded=0;whiteSpace=wrap;html=1;fillColor=#e6d0de;gradientColor=#d5739d;strokeColor=#996185;" parent="1" vertex="1">
          <mxGeometry x="810" y="920" width="150" height="70" as="geometry" />
        </mxCell>
        <mxCell id="0HHCoPCrTV0M4bE5JKeK-55" value="Sigurimi" style="rounded=0;whiteSpace=wrap;html=1;fillColor=#e6d0de;gradientColor=#d5739d;strokeColor=#996185;" parent="1" vertex="1">
          <mxGeometry x="1060" y="920" width="150" height="70" as="geometry" />
        </mxCell>
        <mxCell id="0HHCoPCrTV0M4bE5JKeK-72" style="edgeStyle=orthogonalEdgeStyle;rounded=0;orthogonalLoop=1;jettySize=auto;html=1;exitX=1;exitY=0.5;exitDx=0;exitDy=0;entryX=0;entryY=0.25;entryDx=0;entryDy=0;endArrow=none;endFill=0;" parent="1" source="0HHCoPCrTV0M4bE5JKeK-58" target="0HHCoPCrTV0M4bE5JKeK-54" edge="1">
          <mxGeometry relative="1" as="geometry" />
        </mxCell>
        <mxCell id="0HHCoPCrTV0M4bE5JKeK-58" value="Emri" style="ellipse;whiteSpace=wrap;html=1;fillColor=#dae8fc;gradientColor=#7ea6e0;strokeColor=#6c8ebf;" parent="1" vertex="1">
          <mxGeometry x="650" y="870" width="110" height="60" as="geometry" />
        </mxCell>
        <mxCell id="0HHCoPCrTV0M4bE5JKeK-119" style="edgeStyle=orthogonalEdgeStyle;rounded=0;orthogonalLoop=1;jettySize=auto;html=1;exitX=1;exitY=0.5;exitDx=0;exitDy=0;entryX=0;entryY=0.75;entryDx=0;entryDy=0;endArrow=none;endFill=0;" parent="1" source="0HHCoPCrTV0M4bE5JKeK-59" target="0HHCoPCrTV0M4bE5JKeK-54" edge="1">
          <mxGeometry relative="1" as="geometry" />
        </mxCell>
        <mxCell id="0HHCoPCrTV0M4bE5JKeK-59" value="Mbiemri" style="ellipse;whiteSpace=wrap;html=1;fillColor=#dae8fc;gradientColor=#7ea6e0;strokeColor=#6c8ebf;" parent="1" vertex="1">
          <mxGeometry x="630" y="960" width="110" height="60" as="geometry" />
        </mxCell>
        <mxCell id="0HHCoPCrTV0M4bE5JKeK-73" style="edgeStyle=orthogonalEdgeStyle;rounded=0;orthogonalLoop=1;jettySize=auto;html=1;exitX=0.5;exitY=1;exitDx=0;exitDy=0;entryX=0.25;entryY=0;entryDx=0;entryDy=0;endArrow=none;endFill=0;" parent="1" source="0HHCoPCrTV0M4bE5JKeK-62" target="0HHCoPCrTV0M4bE5JKeK-54" edge="1">
          <mxGeometry relative="1" as="geometry" />
        </mxCell>
        <mxCell id="0HHCoPCrTV0M4bE5JKeK-62" value="Mosha" style="ellipse;whiteSpace=wrap;html=1;fillColor=#dae8fc;gradientColor=#7ea6e0;strokeColor=#6c8ebf;" parent="1" vertex="1">
          <mxGeometry x="760" y="815.09" width="110" height="60" as="geometry" />
        </mxCell>
        <mxCell id="0HHCoPCrTV0M4bE5JKeK-80" style="edgeStyle=orthogonalEdgeStyle;rounded=0;orthogonalLoop=1;jettySize=auto;html=1;exitX=0;exitY=0.5;exitDx=0;exitDy=0;entryX=1;entryY=0.5;entryDx=0;entryDy=0;endArrow=none;endFill=0;" parent="1" source="0HHCoPCrTV0M4bE5JKeK-74" target="0HHCoPCrTV0M4bE5JKeK-55" edge="1">
          <mxGeometry relative="1" as="geometry" />
        </mxCell>
        <mxCell id="0HHCoPCrTV0M4bE5JKeK-116" value="" style="edgeStyle=orthogonalEdgeStyle;rounded=0;orthogonalLoop=1;jettySize=auto;html=1;endArrow=none;endFill=0;" parent="1" source="0HHCoPCrTV0M4bE5JKeK-74" target="0HHCoPCrTV0M4bE5JKeK-55" edge="1">
          <mxGeometry relative="1" as="geometry" />
        </mxCell>
        <mxCell id="0HHCoPCrTV0M4bE5JKeK-74" value="Emri" style="ellipse;whiteSpace=wrap;html=1;fillColor=#dae8fc;gradientColor=#7ea6e0;strokeColor=#6c8ebf;" parent="1" vertex="1">
          <mxGeometry x="1290" y="920" width="110" height="60" as="geometry" />
        </mxCell>
        <mxCell id="0HHCoPCrTV0M4bE5JKeK-79" style="edgeStyle=orthogonalEdgeStyle;rounded=0;orthogonalLoop=1;jettySize=auto;html=1;exitX=0;exitY=0.5;exitDx=0;exitDy=0;entryX=1;entryY=0.75;entryDx=0;entryDy=0;endArrow=none;endFill=0;" parent="1" source="0HHCoPCrTV0M4bE5JKeK-75" target="0HHCoPCrTV0M4bE5JKeK-55" edge="1">
          <mxGeometry relative="1" as="geometry" />
        </mxCell>
        <mxCell id="0HHCoPCrTV0M4bE5JKeK-75" value="Emri" style="ellipse;whiteSpace=wrap;html=1;fillColor=#dae8fc;gradientColor=#7ea6e0;strokeColor=#6c8ebf;" parent="1" vertex="1">
          <mxGeometry x="1290" y="1010" width="110" height="60" as="geometry" />
        </mxCell>
        <mxCell id="0HHCoPCrTV0M4bE5JKeK-82" style="edgeStyle=orthogonalEdgeStyle;rounded=0;orthogonalLoop=1;jettySize=auto;html=1;exitX=0.5;exitY=1;exitDx=0;exitDy=0;entryX=1;entryY=0.25;entryDx=0;entryDy=0;endArrow=none;endFill=0;" parent="1" source="0HHCoPCrTV0M4bE5JKeK-77" target="0HHCoPCrTV0M4bE5JKeK-55" edge="1">
          <mxGeometry relative="1" as="geometry">
            <Array as="points">
              <mxPoint x="1325" y="910" />
              <mxPoint x="1270" y="910" />
              <mxPoint x="1270" y="938" />
            </Array>
          </mxGeometry>
        </mxCell>
        <mxCell id="0HHCoPCrTV0M4bE5JKeK-77" value="Mosha" style="ellipse;whiteSpace=wrap;html=1;fillColor=#dae8fc;gradientColor=#7ea6e0;strokeColor=#6c8ebf;" parent="1" vertex="1">
          <mxGeometry x="1270" y="834.91" width="110" height="60" as="geometry" />
        </mxCell>
        <mxCell id="0HHCoPCrTV0M4bE5JKeK-84" value="Drejtori" style="rounded=0;whiteSpace=wrap;html=1;fillColor=#e6d0de;gradientColor=#d5739d;strokeColor=#996185;" parent="1" vertex="1">
          <mxGeometry x="-250" y="430" width="150" height="70" as="geometry" />
        </mxCell>
        <mxCell id="0HHCoPCrTV0M4bE5JKeK-109" style="edgeStyle=orthogonalEdgeStyle;rounded=0;orthogonalLoop=1;jettySize=auto;html=1;exitX=1;exitY=0.5;exitDx=0;exitDy=0;entryX=0.25;entryY=1;entryDx=0;entryDy=0;endArrow=none;endFill=0;" parent="1" source="0HHCoPCrTV0M4bE5JKeK-92" target="0HHCoPCrTV0M4bE5JKeK-84" edge="1">
          <mxGeometry relative="1" as="geometry" />
        </mxCell>
        <mxCell id="0HHCoPCrTV0M4bE5JKeK-92" value="Mbiemri" style="ellipse;whiteSpace=wrap;html=1;fillColor=#dae8fc;gradientColor=#7ea6e0;strokeColor=#6c8ebf;" parent="1" vertex="1">
          <mxGeometry x="-410" y="505" width="110" height="60" as="geometry" />
        </mxCell>
        <mxCell id="0HHCoPCrTV0M4bE5JKeK-103" style="edgeStyle=orthogonalEdgeStyle;rounded=0;orthogonalLoop=1;jettySize=auto;html=1;exitX=0.5;exitY=1;exitDx=0;exitDy=0;entryX=0;entryY=0.25;entryDx=0;entryDy=0;endArrow=none;endFill=0;" parent="1" source="0HHCoPCrTV0M4bE5JKeK-93" target="0HHCoPCrTV0M4bE5JKeK-24" edge="1">
          <mxGeometry relative="1" as="geometry" />
        </mxCell>
        <mxCell id="0HHCoPCrTV0M4bE5JKeK-93" value="Emri" style="ellipse;whiteSpace=wrap;html=1;fillColor=#dae8fc;gradientColor=#7ea6e0;strokeColor=#6c8ebf;" parent="1" vertex="1">
          <mxGeometry y="550" width="110" height="60" as="geometry" />
        </mxCell>
        <mxCell id="0HHCoPCrTV0M4bE5JKeK-104" style="edgeStyle=orthogonalEdgeStyle;rounded=0;orthogonalLoop=1;jettySize=auto;html=1;exitX=0;exitY=1;exitDx=0;exitDy=0;entryX=0.25;entryY=0;entryDx=0;entryDy=0;endArrow=none;endFill=0;" parent="1" source="0HHCoPCrTV0M4bE5JKeK-94" target="0HHCoPCrTV0M4bE5JKeK-24" edge="1">
          <mxGeometry relative="1" as="geometry" />
        </mxCell>
        <mxCell id="0HHCoPCrTV0M4bE5JKeK-94" value="ID_Profesori" style="ellipse;whiteSpace=wrap;html=1;fillColor=#dae8fc;gradientColor=#7ea6e0;strokeColor=#6c8ebf;" parent="1" vertex="1">
          <mxGeometry x="115" y="544.91" width="110" height="60" as="geometry" />
        </mxCell>
        <mxCell id="0HHCoPCrTV0M4bE5JKeK-101" style="edgeStyle=orthogonalEdgeStyle;rounded=0;orthogonalLoop=1;jettySize=auto;html=1;exitX=1;exitY=0.5;exitDx=0;exitDy=0;entryX=0;entryY=0.75;entryDx=0;entryDy=0;endArrow=none;endFill=0;" parent="1" source="0HHCoPCrTV0M4bE5JKeK-95" target="0HHCoPCrTV0M4bE5JKeK-24" edge="1">
          <mxGeometry relative="1" as="geometry" />
        </mxCell>
        <mxCell id="0HHCoPCrTV0M4bE5JKeK-95" value="Mbiemri" style="ellipse;whiteSpace=wrap;html=1;fillColor=#dae8fc;gradientColor=#7ea6e0;strokeColor=#6c8ebf;" parent="1" vertex="1">
          <mxGeometry x="-200" y="660" width="110" height="60" as="geometry" />
        </mxCell>
        <mxCell id="0HHCoPCrTV0M4bE5JKeK-102" style="edgeStyle=orthogonalEdgeStyle;rounded=0;orthogonalLoop=1;jettySize=auto;html=1;exitX=1;exitY=0.5;exitDx=0;exitDy=0;entryX=0;entryY=0.5;entryDx=0;entryDy=0;endArrow=none;endFill=0;" parent="1" source="0HHCoPCrTV0M4bE5JKeK-96" target="0HHCoPCrTV0M4bE5JKeK-24" edge="1">
          <mxGeometry relative="1" as="geometry" />
        </mxCell>
        <mxCell id="0HHCoPCrTV0M4bE5JKeK-96" value="Mosha" style="ellipse;whiteSpace=wrap;html=1;fillColor=#dae8fc;gradientColor=#7ea6e0;strokeColor=#6c8ebf;" parent="1" vertex="1">
          <mxGeometry x="-150" y="600" width="110" height="60" as="geometry" />
        </mxCell>
        <mxCell id="0HHCoPCrTV0M4bE5JKeK-100" style="edgeStyle=orthogonalEdgeStyle;rounded=0;orthogonalLoop=1;jettySize=auto;html=1;exitX=0.5;exitY=1;exitDx=0;exitDy=0;endArrow=none;endFill=0;" parent="1" source="0HHCoPCrTV0M4bE5JKeK-98" target="0HHCoPCrTV0M4bE5JKeK-99" edge="1">
          <mxGeometry relative="1" as="geometry" />
        </mxCell>
        <mxCell id="0HHCoPCrTV0M4bE5JKeK-98" value="Ligjeron" style="rhombus;whiteSpace=wrap;html=1;fillColor=#fff2cc;gradientColor=#ffd966;strokeColor=#d6b656;" parent="1" vertex="1">
          <mxGeometry x="65" y="880" width="120" height="110" as="geometry" />
        </mxCell>
        <mxCell id="0HHCoPCrTV0M4bE5JKeK-99" value="Lenda" style="rounded=0;whiteSpace=wrap;html=1;fillColor=#e6d0de;gradientColor=#d5739d;strokeColor=#996185;" parent="1" vertex="1">
          <mxGeometry x="50" y="1050" width="150" height="70" as="geometry" />
        </mxCell>
        <mxCell id="0HHCoPCrTV0M4bE5JKeK-110" style="edgeStyle=orthogonalEdgeStyle;rounded=0;orthogonalLoop=1;jettySize=auto;html=1;exitX=1;exitY=0.5;exitDx=0;exitDy=0;entryX=0;entryY=0.75;entryDx=0;entryDy=0;endArrow=none;endFill=0;" parent="1" source="0HHCoPCrTV0M4bE5JKeK-105" target="0HHCoPCrTV0M4bE5JKeK-84" edge="1">
          <mxGeometry relative="1" as="geometry" />
        </mxCell>
        <mxCell id="0HHCoPCrTV0M4bE5JKeK-105" value="Emri" style="ellipse;whiteSpace=wrap;html=1;fillColor=#dae8fc;gradientColor=#7ea6e0;strokeColor=#6c8ebf;" parent="1" vertex="1">
          <mxGeometry x="-510" y="440" width="110" height="60" as="geometry" />
        </mxCell>
        <mxCell id="0HHCoPCrTV0M4bE5JKeK-111" style="edgeStyle=orthogonalEdgeStyle;rounded=0;orthogonalLoop=1;jettySize=auto;html=1;exitX=0.5;exitY=1;exitDx=0;exitDy=0;entryX=0;entryY=0.25;entryDx=0;entryDy=0;endArrow=none;endFill=0;" parent="1" source="0HHCoPCrTV0M4bE5JKeK-107" target="0HHCoPCrTV0M4bE5JKeK-84" edge="1">
          <mxGeometry relative="1" as="geometry" />
        </mxCell>
        <mxCell id="0HHCoPCrTV0M4bE5JKeK-107" value="Mosha" style="ellipse;whiteSpace=wrap;html=1;fillColor=#dae8fc;gradientColor=#7ea6e0;strokeColor=#6c8ebf;" parent="1" vertex="1">
          <mxGeometry x="-350" y="325.09000000000003" width="110" height="60" as="geometry" />
        </mxCell>
        <mxCell id="0HHCoPCrTV0M4bE5JKeK-112" style="edgeStyle=orthogonalEdgeStyle;rounded=0;orthogonalLoop=1;jettySize=auto;html=1;exitX=0;exitY=1;exitDx=0;exitDy=0;entryX=0.25;entryY=0;entryDx=0;entryDy=0;endArrow=none;endFill=0;" parent="1" source="0HHCoPCrTV0M4bE5JKeK-108" target="0HHCoPCrTV0M4bE5JKeK-84" edge="1">
          <mxGeometry relative="1" as="geometry" />
        </mxCell>
        <mxCell id="0HHCoPCrTV0M4bE5JKeK-108" value="ID_Drejtori" style="ellipse;whiteSpace=wrap;html=1;fillColor=#dae8fc;gradientColor=#7ea6e0;strokeColor=#6c8ebf;" parent="1" vertex="1">
          <mxGeometry x="-225.87" y="312.55" width="110" height="60" as="geometry" />
        </mxCell>
        <mxCell id="0HHCoPCrTV0M4bE5JKeK-113" value="ID_Sigurimi" style="ellipse;whiteSpace=wrap;html=1;fillColor=#dae8fc;gradientColor=#7ea6e0;strokeColor=#6c8ebf;" parent="1" vertex="1">
          <mxGeometry x="1140" y="840" width="110" height="60" as="geometry" />
        </mxCell>
        <mxCell id="0HHCoPCrTV0M4bE5JKeK-118" style="edgeStyle=orthogonalEdgeStyle;rounded=0;orthogonalLoop=1;jettySize=auto;html=1;exitX=0.5;exitY=0;exitDx=0;exitDy=0;entryX=0.25;entryY=1;entryDx=0;entryDy=0;endArrow=none;endFill=0;" parent="1" source="0HHCoPCrTV0M4bE5JKeK-114" target="0HHCoPCrTV0M4bE5JKeK-54" edge="1">
          <mxGeometry relative="1" as="geometry" />
        </mxCell>
        <mxCell id="0HHCoPCrTV0M4bE5JKeK-114" value="ID_Mirmbajtesi" style="ellipse;whiteSpace=wrap;html=1;fillColor=#dae8fc;gradientColor=#7ea6e0;strokeColor=#6c8ebf;" parent="1" vertex="1">
          <mxGeometry x="692.41" y="1040" width="110" height="60" as="geometry" />
        </mxCell>
        <mxCell id="0HHCoPCrTV0M4bE5JKeK-117" style="edgeStyle=orthogonalEdgeStyle;rounded=0;orthogonalLoop=1;jettySize=auto;html=1;exitX=0.5;exitY=1;exitDx=0;exitDy=0;entryX=0.9;entryY=0.028;entryDx=0;entryDy=0;entryPerimeter=0;endArrow=none;endFill=0;" parent="1" source="0HHCoPCrTV0M4bE5JKeK-113" target="0HHCoPCrTV0M4bE5JKeK-55" edge="1">
          <mxGeometry relative="1" as="geometry" />
        </mxCell>
        <mxCell id="0HHCoPCrTV0M4bE5JKeK-124" style="edgeStyle=orthogonalEdgeStyle;rounded=0;orthogonalLoop=1;jettySize=auto;html=1;exitX=1;exitY=1;exitDx=0;exitDy=0;entryX=0;entryY=0.25;entryDx=0;entryDy=0;endArrow=none;endFill=0;" parent="1" source="0HHCoPCrTV0M4bE5JKeK-120" target="0HHCoPCrTV0M4bE5JKeK-99" edge="1">
          <mxGeometry relative="1" as="geometry">
            <Array as="points">
              <mxPoint x="-5" y="1031" />
              <mxPoint x="-5" y="1068" />
            </Array>
          </mxGeometry>
        </mxCell>
        <mxCell id="0HHCoPCrTV0M4bE5JKeK-120" value="ID_Lenda" style="ellipse;whiteSpace=wrap;html=1;fillColor=#dae8fc;gradientColor=#7ea6e0;strokeColor=#6c8ebf;" parent="1" vertex="1">
          <mxGeometry x="-160" y="1050" width="110" height="60" as="geometry" />
        </mxCell>
        <mxCell id="0HHCoPCrTV0M4bE5JKeK-122" style="edgeStyle=orthogonalEdgeStyle;rounded=0;orthogonalLoop=1;jettySize=auto;html=1;exitX=1;exitY=0.5;exitDx=0;exitDy=0;entryX=0;entryY=0.5;entryDx=0;entryDy=0;endArrow=none;endFill=0;" parent="1" source="0HHCoPCrTV0M4bE5JKeK-121" target="0HHCoPCrTV0M4bE5JKeK-99" edge="1">
          <mxGeometry relative="1" as="geometry" />
        </mxCell>
        <mxCell id="0HHCoPCrTV0M4bE5JKeK-121" value="Emri Lendes" style="ellipse;whiteSpace=wrap;html=1;fillColor=#dae8fc;gradientColor=#7ea6e0;strokeColor=#6c8ebf;" parent="1" vertex="1">
          <mxGeometry x="-180" y="1120" width="110" height="60" as="geometry" />
        </mxCell>
        <mxCell id="0HHCoPCrTV0M4bE5JKeK-132" style="edgeStyle=orthogonalEdgeStyle;rounded=0;orthogonalLoop=1;jettySize=auto;html=1;exitX=0.5;exitY=1;exitDx=0;exitDy=0;entryX=0.5;entryY=0;entryDx=0;entryDy=0;" parent="1" source="0HHCoPCrTV0M4bE5JKeK-127" target="0HHCoPCrTV0M4bE5JKeK-131" edge="1">
          <mxGeometry relative="1" as="geometry" />
        </mxCell>
        <mxCell id="0HHCoPCrTV0M4bE5JKeK-127" value="Klasa" style="rounded=0;whiteSpace=wrap;html=1;fillColor=#e6d0de;gradientColor=#d5739d;strokeColor=#996185;" parent="1" vertex="1">
          <mxGeometry x="672.41" y="220" width="150" height="70" as="geometry" />
        </mxCell>
        <mxCell id="0HHCoPCrTV0M4bE5JKeK-141" style="edgeStyle=orthogonalEdgeStyle;rounded=0;orthogonalLoop=1;jettySize=auto;html=1;exitX=0.25;exitY=0;exitDx=0;exitDy=0;entryX=1;entryY=0.5;entryDx=0;entryDy=0;endArrow=none;endFill=0;" parent="1" source="0HHCoPCrTV0M4bE5JKeK-129" target="0HHCoPCrTV0M4bE5JKeK-139" edge="1">
          <mxGeometry relative="1" as="geometry" />
        </mxCell>
        <mxCell id="0HHCoPCrTV0M4bE5JKeK-129" value="Salla" style="rounded=0;whiteSpace=wrap;html=1;fillColor=#e6d0de;gradientColor=#d5739d;strokeColor=#996185;" parent="1" vertex="1">
          <mxGeometry x="677.41" y="225" width="140" height="60" as="geometry" />
        </mxCell>
        <mxCell id="0HHCoPCrTV0M4bE5JKeK-130" value="" style="triangle;whiteSpace=wrap;html=1;rotation=-90;fillColor=#d5e8d4;gradientColor=#97d077;strokeColor=#82b366;" parent="1" vertex="1">
          <mxGeometry x="702.5" y="325.09000000000003" width="89.82" height="154.91" as="geometry" />
        </mxCell>
        <mxCell id="0HHCoPCrTV0M4bE5JKeK-131" value="IS A" style="text;html=1;align=center;verticalAlign=middle;whiteSpace=wrap;rounded=0;" parent="1" vertex="1">
          <mxGeometry x="689.9100000000001" y="380" width="115" height="60" as="geometry" />
        </mxCell>
        <mxCell id="0HHCoPCrTV0M4bE5JKeK-133" value="Salla Laboratorike" style="rounded=0;whiteSpace=wrap;html=1;fillColor=#e6d0de;gradientColor=#d5739d;strokeColor=#996185;" parent="1" vertex="1">
          <mxGeometry x="510" y="500" width="150" height="70" as="geometry" />
        </mxCell>
        <mxCell id="0HHCoPCrTV0M4bE5JKeK-134" value="Salla e Ligjeratave" style="rounded=0;whiteSpace=wrap;html=1;fillColor=#e6d0de;gradientColor=#d5739d;strokeColor=#996185;" parent="1" vertex="1">
          <mxGeometry x="870" y="490" width="150" height="70" as="geometry" />
        </mxCell>
        <mxCell id="0HHCoPCrTV0M4bE5JKeK-135" style="edgeStyle=orthogonalEdgeStyle;rounded=0;orthogonalLoop=1;jettySize=auto;html=1;exitX=0.5;exitY=0;exitDx=0;exitDy=0;entryX=-0.028;entryY=0;entryDx=0;entryDy=0;entryPerimeter=0;endArrow=none;endFill=0;" parent="1" source="0HHCoPCrTV0M4bE5JKeK-133" target="0HHCoPCrTV0M4bE5JKeK-130" edge="1">
          <mxGeometry relative="1" as="geometry" />
        </mxCell>
        <mxCell id="0HHCoPCrTV0M4bE5JKeK-137" style="edgeStyle=orthogonalEdgeStyle;rounded=0;orthogonalLoop=1;jettySize=auto;html=1;exitX=0.5;exitY=0;exitDx=0;exitDy=0;entryX=0.029;entryY=0.997;entryDx=0;entryDy=0;entryPerimeter=0;endArrow=none;endFill=0;" parent="1" source="0HHCoPCrTV0M4bE5JKeK-134" target="0HHCoPCrTV0M4bE5JKeK-130" edge="1">
          <mxGeometry relative="1" as="geometry" />
        </mxCell>
        <mxCell id="0HHCoPCrTV0M4bE5JKeK-139" value="ID_Salla" style="ellipse;whiteSpace=wrap;html=1;fillColor=#dae8fc;gradientColor=#7ea6e0;strokeColor=#6c8ebf;" parent="1" vertex="1">
          <mxGeometry x="560" y="150" width="110" height="60" as="geometry" />
        </mxCell>
        <mxCell id="0HHCoPCrTV0M4bE5JKeK-142" style="edgeStyle=orthogonalEdgeStyle;rounded=0;orthogonalLoop=1;jettySize=auto;html=1;exitX=1;exitY=0.5;exitDx=0;exitDy=0;entryX=0;entryY=0.5;entryDx=0;entryDy=0;" parent="1" source="0HHCoPCrTV0M4bE5JKeK-140" target="0HHCoPCrTV0M4bE5JKeK-129" edge="1">
          <mxGeometry relative="1" as="geometry" />
        </mxCell>
        <mxCell id="0HHCoPCrTV0M4bE5JKeK-140" value="Numri Salles" style="ellipse;whiteSpace=wrap;html=1;fillColor=#dae8fc;gradientColor=#7ea6e0;strokeColor=#6c8ebf;" parent="1" vertex="1">
          <mxGeometry x="490" y="225" width="110" height="60" as="geometry" />
        </mxCell>
        <mxCell id="0HHCoPCrTV0M4bE5JKeK-147" style="edgeStyle=orthogonalEdgeStyle;rounded=0;orthogonalLoop=1;jettySize=auto;html=1;exitX=0;exitY=0.5;exitDx=0;exitDy=0;entryX=1;entryY=0.5;entryDx=0;entryDy=0;endArrow=none;endFill=0;" parent="1" source="0HHCoPCrTV0M4bE5JKeK-143" target="0HHCoPCrTV0M4bE5JKeK-134" edge="1">
          <mxGeometry relative="1" as="geometry" />
        </mxCell>
        <mxCell id="0HHCoPCrTV0M4bE5JKeK-143" value="ID_Salla" style="ellipse;whiteSpace=wrap;html=1;fillColor=#dae8fc;gradientColor=#7ea6e0;strokeColor=#6c8ebf;" parent="1" vertex="1">
          <mxGeometry x="1082.41" y="520" width="110" height="60" as="geometry" />
        </mxCell>
        <mxCell id="0HHCoPCrTV0M4bE5JKeK-149" style="edgeStyle=orthogonalEdgeStyle;rounded=0;orthogonalLoop=1;jettySize=auto;html=1;exitX=0;exitY=0.5;exitDx=0;exitDy=0;endArrow=none;endFill=0;" parent="1" source="0HHCoPCrTV0M4bE5JKeK-144" edge="1">
          <mxGeometry relative="1" as="geometry">
            <mxPoint x="660" y="535" as="targetPoint" />
          </mxGeometry>
        </mxCell>
        <mxCell id="0HHCoPCrTV0M4bE5JKeK-144" value="ID_Salla" style="ellipse;whiteSpace=wrap;html=1;fillColor=#dae8fc;gradientColor=#7ea6e0;strokeColor=#6c8ebf;" parent="1" vertex="1">
          <mxGeometry x="712.41" y="490" width="110" height="60" as="geometry" />
        </mxCell>
        <mxCell id="0HHCoPCrTV0M4bE5JKeK-148" style="edgeStyle=orthogonalEdgeStyle;rounded=0;orthogonalLoop=1;jettySize=auto;html=1;exitX=0.5;exitY=0;exitDx=0;exitDy=0;entryX=0.75;entryY=1;entryDx=0;entryDy=0;endArrow=none;endFill=0;" parent="1" source="0HHCoPCrTV0M4bE5JKeK-145" target="0HHCoPCrTV0M4bE5JKeK-134" edge="1">
          <mxGeometry relative="1" as="geometry" />
        </mxCell>
        <mxCell id="0HHCoPCrTV0M4bE5JKeK-145" value="Numri Salles" style="ellipse;whiteSpace=wrap;html=1;fillColor=#dae8fc;gradientColor=#7ea6e0;strokeColor=#6c8ebf;" parent="1" vertex="1">
          <mxGeometry x="940" y="604.9100000000001" width="110" height="60" as="geometry" />
        </mxCell>
        <mxCell id="0HHCoPCrTV0M4bE5JKeK-150" style="edgeStyle=orthogonalEdgeStyle;rounded=0;orthogonalLoop=1;jettySize=auto;html=1;exitX=0;exitY=0;exitDx=0;exitDy=0;entryX=1;entryY=0.75;entryDx=0;entryDy=0;endArrow=none;endFill=0;" parent="1" source="0HHCoPCrTV0M4bE5JKeK-146" target="0HHCoPCrTV0M4bE5JKeK-133" edge="1">
          <mxGeometry relative="1" as="geometry" />
        </mxCell>
        <mxCell id="0HHCoPCrTV0M4bE5JKeK-146" value="Numri Salles" style="ellipse;whiteSpace=wrap;html=1;fillColor=#dae8fc;gradientColor=#7ea6e0;strokeColor=#6c8ebf;" parent="1" vertex="1">
          <mxGeometry x="689.91" y="570" width="110" height="60" as="geometry" />
        </mxCell>
        <mxCell id="T7-lwO-HggSbHTCkCa26-1" value="ID_StafiTeknik" style="ellipse;whiteSpace=wrap;html=1;fillColor=#dae8fc;gradientColor=#7ea6e0;strokeColor=#6c8ebf;" parent="1" vertex="1">
          <mxGeometry x="620" y="760" width="110" height="60" as="geometry" />
        </mxCell>
        <mxCell id="T7-lwO-HggSbHTCkCa26-2" style="edgeStyle=orthogonalEdgeStyle;rounded=0;orthogonalLoop=1;jettySize=auto;html=1;exitX=0;exitY=0.5;exitDx=0;exitDy=0;entryX=0.589;entryY=1.079;entryDx=0;entryDy=0;entryPerimeter=0;endArrow=none;endFill=0;" parent="1" source="T7-lwO-HggSbHTCkCa26-1" target="0HHCoPCrTV0M4bE5JKeK-23" edge="1">
          <mxGeometry relative="1" as="geometry" />
        </mxCell>
        <mxCell id="T7-lwO-HggSbHTCkCa26-3" value="" style="rounded=0;whiteSpace=wrap;html=1;fillColor=#bac8d3;rotation=90;strokeColor=#23445d;opacity=30;" parent="1" vertex="1">
          <mxGeometry x="-109.2" y="787.45" width="468.4" height="234.99" as="geometry" />
        </mxCell>
        <mxCell id="T7-lwO-HggSbHTCkCa26-14" style="edgeStyle=orthogonalEdgeStyle;rounded=0;orthogonalLoop=1;jettySize=auto;html=1;exitX=0.5;exitY=1;exitDx=0;exitDy=0;" parent="1" source="T7-lwO-HggSbHTCkCa26-11" edge="1">
          <mxGeometry relative="1" as="geometry">
            <mxPoint x="360.5454545454545" y="1380" as="targetPoint" />
          </mxGeometry>
        </mxCell>
        <mxCell id="T7-lwO-HggSbHTCkCa26-11" value="Ka" style="rhombus;whiteSpace=wrap;html=1;fillColor=#fff2cc;gradientColor=#ffd966;strokeColor=#d6b656;" parent="1" vertex="1">
          <mxGeometry x="300" y="1200" width="120" height="110" as="geometry" />
        </mxCell>
        <mxCell id="T7-lwO-HggSbHTCkCa26-15" value="Nxenesi" style="rounded=0;whiteSpace=wrap;html=1;fillColor=#e6d0de;gradientColor=#d5739d;strokeColor=#996185;" parent="1" vertex="1">
          <mxGeometry x="285" y="1380" width="150" height="70" as="geometry" />
        </mxCell>
        <mxCell id="T7-lwO-HggSbHTCkCa26-16" value="" style="rounded=0;whiteSpace=wrap;html=1;fillColor=#bac8d3;rotation=90;strokeColor=#23445d;glass=1;shadow=0;dashed=1;fillStyle=auto;opacity=30;" parent="1" vertex="1">
          <mxGeometry x="120" y="1130" width="468.4" height="210" as="geometry" />
        </mxCell>
        <mxCell id="T7-lwO-HggSbHTCkCa26-22" style="edgeStyle=orthogonalEdgeStyle;rounded=0;orthogonalLoop=1;jettySize=auto;html=1;exitX=0.5;exitY=1;exitDx=0;exitDy=0;entryX=0.75;entryY=0;entryDx=0;entryDy=0;endArrow=none;endFill=0;" parent="1" source="T7-lwO-HggSbHTCkCa26-17" target="T7-lwO-HggSbHTCkCa26-15" edge="1">
          <mxGeometry relative="1" as="geometry">
            <mxPoint x="530" y="1460" as="targetPoint" />
          </mxGeometry>
        </mxCell>
        <mxCell id="T7-lwO-HggSbHTCkCa26-17" value="Emri" style="ellipse;whiteSpace=wrap;html=1;fillColor=#dae8fc;gradientColor=#7ea6e0;strokeColor=#6c8ebf;" parent="1" vertex="1">
          <mxGeometry x="505" y="1310" width="110" height="60" as="geometry" />
        </mxCell>
        <mxCell id="T7-lwO-HggSbHTCkCa26-23" style="edgeStyle=orthogonalEdgeStyle;rounded=0;orthogonalLoop=1;jettySize=auto;html=1;exitX=0;exitY=1;exitDx=0;exitDy=0;entryX=1;entryY=0.25;entryDx=0;entryDy=0;endArrow=none;endFill=0;" parent="1" source="T7-lwO-HggSbHTCkCa26-18" target="T7-lwO-HggSbHTCkCa26-15" edge="1">
          <mxGeometry relative="1" as="geometry" />
        </mxCell>
        <mxCell id="T7-lwO-HggSbHTCkCa26-18" value="Mbiemri" style="ellipse;whiteSpace=wrap;html=1;fillColor=#dae8fc;gradientColor=#7ea6e0;strokeColor=#6c8ebf;" parent="1" vertex="1">
          <mxGeometry x="580" y="1365" width="110" height="60" as="geometry" />
        </mxCell>
        <mxCell id="T7-lwO-HggSbHTCkCa26-25" style="edgeStyle=orthogonalEdgeStyle;rounded=0;orthogonalLoop=1;jettySize=auto;html=1;exitX=0;exitY=0.5;exitDx=0;exitDy=0;entryX=1;entryY=0.75;entryDx=0;entryDy=0;endArrow=none;endFill=0;" parent="1" source="T7-lwO-HggSbHTCkCa26-19" target="T7-lwO-HggSbHTCkCa26-15" edge="1">
          <mxGeometry relative="1" as="geometry">
            <Array as="points">
              <mxPoint x="500" y="1515" />
              <mxPoint x="500" y="1433" />
            </Array>
          </mxGeometry>
        </mxCell>
        <mxCell id="T7-lwO-HggSbHTCkCa26-19" value="ID_Nxenesi" style="ellipse;whiteSpace=wrap;html=1;fillColor=#dae8fc;gradientColor=#7ea6e0;strokeColor=#6c8ebf;" parent="1" vertex="1">
          <mxGeometry x="505" y="1490" width="110" height="60" as="geometry" />
        </mxCell>
        <mxCell id="T7-lwO-HggSbHTCkCa26-20" value="Email" style="ellipse;whiteSpace=wrap;html=1;fillColor=#dae8fc;gradientColor=#7ea6e0;strokeColor=#6c8ebf;" parent="1" vertex="1">
          <mxGeometry x="390" y="1530" width="110" height="60" as="geometry" />
        </mxCell>
        <mxCell id="T7-lwO-HggSbHTCkCa26-21" value="Mosha" style="ellipse;whiteSpace=wrap;html=1;fillColor=#dae8fc;gradientColor=#7ea6e0;strokeColor=#6c8ebf;" parent="1" vertex="1">
          <mxGeometry x="510" y="1425" width="110" height="60" as="geometry" />
        </mxCell>
        <mxCell id="T7-lwO-HggSbHTCkCa26-24" style="edgeStyle=orthogonalEdgeStyle;rounded=0;orthogonalLoop=1;jettySize=auto;html=1;exitX=0;exitY=0.5;exitDx=0;exitDy=0;entryX=1;entryY=0.5;entryDx=0;entryDy=0;endArrow=none;endFill=0;" parent="1" source="T7-lwO-HggSbHTCkCa26-21" target="T7-lwO-HggSbHTCkCa26-15" edge="1">
          <mxGeometry relative="1" as="geometry" />
        </mxCell>
        <mxCell id="T7-lwO-HggSbHTCkCa26-26" style="edgeStyle=orthogonalEdgeStyle;rounded=0;orthogonalLoop=1;jettySize=auto;html=1;exitX=0.5;exitY=0;exitDx=0;exitDy=0;entryX=0.867;entryY=1.002;entryDx=0;entryDy=0;entryPerimeter=0;endArrow=none;endFill=0;" parent="1" source="T7-lwO-HggSbHTCkCa26-20" target="T7-lwO-HggSbHTCkCa26-15" edge="1">
          <mxGeometry relative="1" as="geometry" />
        </mxCell>
        <mxCell id="T7-lwO-HggSbHTCkCa26-30" value="" style="edgeStyle=orthogonalEdgeStyle;rounded=0;orthogonalLoop=1;jettySize=auto;html=1;exitX=0.5;exitY=1;exitDx=0;exitDy=0;endArrow=none;endFill=0;" parent="1" source="T7-lwO-HggSbHTCkCa26-3" target="T7-lwO-HggSbHTCkCa26-29" edge="1">
          <mxGeometry relative="1" as="geometry">
            <mxPoint x="-380" y="913" as="targetPoint" />
            <mxPoint x="1" y="913" as="sourcePoint" />
          </mxGeometry>
        </mxCell>
        <mxCell id="T7-lwO-HggSbHTCkCa26-29" value="Vlerson" style="rhombus;whiteSpace=wrap;html=1;fillColor=#fff2cc;gradientColor=#ffd966;strokeColor=#d6b656;" parent="1" vertex="1">
          <mxGeometry x="-410" y="857.55" width="120" height="110" as="geometry" />
        </mxCell>
        <mxCell id="wESGeoLV9hR2vhpcav89-1" style="edgeStyle=orthogonalEdgeStyle;rounded=0;orthogonalLoop=1;jettySize=auto;html=1;exitX=0;exitY=1;exitDx=0;exitDy=0;entryX=1;entryY=0;entryDx=0;entryDy=0;" parent="1" source="T7-lwO-HggSbHTCkCa26-31" target="T7-lwO-HggSbHTCkCa26-29" edge="1">
          <mxGeometry relative="1" as="geometry" />
        </mxCell>
        <mxCell id="T7-lwO-HggSbHTCkCa26-31" value="Nota" style="ellipse;whiteSpace=wrap;html=1;fillColor=#dae8fc;gradientColor=#7ea6e0;strokeColor=#6c8ebf;" parent="1" vertex="1">
          <mxGeometry x="-300" y="787.4500000000002" width="110" height="60" as="geometry" />
        </mxCell>
        <mxCell id="T7-lwO-HggSbHTCkCa26-33" style="edgeStyle=orthogonalEdgeStyle;rounded=0;orthogonalLoop=1;jettySize=auto;html=1;exitX=0.5;exitY=1;exitDx=0;exitDy=0;entryX=0.775;entryY=1.005;entryDx=0;entryDy=0;entryPerimeter=0;endArrow=none;endFill=0;" parent="1" source="T7-lwO-HggSbHTCkCa26-29" target="T7-lwO-HggSbHTCkCa26-16" edge="1">
          <mxGeometry relative="1" as="geometry">
            <Array as="points">
              <mxPoint x="-350" y="1364" />
            </Array>
          </mxGeometry>
        </mxCell>
        <mxCell id="T7-lwO-HggSbHTCkCa26-39" style="edgeStyle=orthogonalEdgeStyle;rounded=0;orthogonalLoop=1;jettySize=auto;html=1;exitX=1;exitY=1;exitDx=0;exitDy=0;entryX=0;entryY=0.5;entryDx=0;entryDy=0;endArrow=none;endFill=0;" parent="1" source="T7-lwO-HggSbHTCkCa26-38" target="0HHCoPCrTV0M4bE5JKeK-84" edge="1">
          <mxGeometry relative="1" as="geometry">
            <Array as="points">
              <mxPoint x="-356" y="403" />
              <mxPoint x="-340" y="403" />
              <mxPoint x="-340" y="430" />
              <mxPoint x="-315" y="430" />
              <mxPoint x="-315" y="465" />
            </Array>
          </mxGeometry>
        </mxCell>
        <mxCell id="T7-lwO-HggSbHTCkCa26-38" value="Email" style="ellipse;whiteSpace=wrap;html=1;fillColor=#dae8fc;gradientColor=#7ea6e0;strokeColor=#6c8ebf;" parent="1" vertex="1">
          <mxGeometry x="-450" y="372.55" width="110" height="60" as="geometry" />
        </mxCell>
        <mxCell id="T7-lwO-HggSbHTCkCa26-6" value="" style="rounded=0;whiteSpace=wrap;html=1;fillColor=#bac8d3;strokeColor=#23445d;opacity=30;" parent="1" vertex="1">
          <mxGeometry x="-260" y="400" width="710" height="130" as="geometry" />
        </mxCell>
        <mxCell id="T7-lwO-HggSbHTCkCa26-43" value="Email" style="ellipse;whiteSpace=wrap;html=1;fillColor=#dae8fc;gradientColor=#7ea6e0;strokeColor=#6c8ebf;" parent="1" vertex="1">
          <mxGeometry x="215" y="590" width="110" height="60" as="geometry" />
        </mxCell>
        <mxCell id="T7-lwO-HggSbHTCkCa26-44" style="edgeStyle=orthogonalEdgeStyle;rounded=0;orthogonalLoop=1;jettySize=auto;html=1;exitX=0;exitY=0.5;exitDx=0;exitDy=0;entryX=0.667;entryY=0;entryDx=0;entryDy=0;entryPerimeter=0;endArrow=none;endFill=0;" parent="1" source="T7-lwO-HggSbHTCkCa26-43" target="0HHCoPCrTV0M4bE5JKeK-24" edge="1">
          <mxGeometry relative="1" as="geometry" />
        </mxCell>
        <mxCell id="GdjmvJjhHIuF_tG_6bYk-1" value="Nota Mesatare" style="ellipse;whiteSpace=wrap;html=1;fillColor=#dae8fc;gradientColor=#7ea6e0;strokeColor=#6c8ebf;" parent="1" vertex="1">
          <mxGeometry x="280" y="1500" width="110" height="60" as="geometry" />
        </mxCell>
        <mxCell id="GdjmvJjhHIuF_tG_6bYk-7" style="edgeStyle=orthogonalEdgeStyle;rounded=0;orthogonalLoop=1;jettySize=auto;html=1;exitX=1;exitY=0;exitDx=0;exitDy=0;entryX=0.598;entryY=1.033;entryDx=0;entryDy=0;entryPerimeter=0;endArrow=none;endFill=0;" parent="1" source="GdjmvJjhHIuF_tG_6bYk-1" target="T7-lwO-HggSbHTCkCa26-15" edge="1">
          <mxGeometry relative="1" as="geometry" />
        </mxCell>
        <mxCell id="GdjmvJjhHIuF_tG_6bYk-11" style="edgeStyle=orthogonalEdgeStyle;rounded=0;orthogonalLoop=1;jettySize=auto;html=1;exitX=0.5;exitY=0;exitDx=0;exitDy=0;entryX=0.5;entryY=1;entryDx=0;entryDy=0;endArrow=none;endFill=0;" parent="1" source="GdjmvJjhHIuF_tG_6bYk-8" target="0HHCoPCrTV0M4bE5JKeK-54" edge="1">
          <mxGeometry relative="1" as="geometry" />
        </mxCell>
        <mxCell id="GdjmvJjhHIuF_tG_6bYk-8" value="Orari" style="ellipse;whiteSpace=wrap;html=1;fillColor=#dae8fc;gradientColor=#7ea6e0;strokeColor=#6c8ebf;" parent="1" vertex="1">
          <mxGeometry x="830" y="1040" width="110" height="60" as="geometry" />
        </mxCell>
        <mxCell id="GdjmvJjhHIuF_tG_6bYk-9" value="Orari" style="ellipse;whiteSpace=wrap;html=1;fillColor=#dae8fc;gradientColor=#7ea6e0;strokeColor=#6c8ebf;" parent="1" vertex="1">
          <mxGeometry x="1150" y="1055" width="110" height="60" as="geometry" />
        </mxCell>
        <mxCell id="GdjmvJjhHIuF_tG_6bYk-10" style="edgeStyle=orthogonalEdgeStyle;rounded=0;orthogonalLoop=1;jettySize=auto;html=1;exitX=0.5;exitY=0;exitDx=0;exitDy=0;entryX=0.853;entryY=1.005;entryDx=0;entryDy=0;entryPerimeter=0;endArrow=none;endFill=0;" parent="1" source="GdjmvJjhHIuF_tG_6bYk-9" target="0HHCoPCrTV0M4bE5JKeK-55" edge="1">
          <mxGeometry relative="1" as="geometry" />
        </mxCell>
        <mxCell id="se6b7WtIlCDhHFCffmnq-2" style="edgeStyle=orthogonalEdgeStyle;rounded=0;orthogonalLoop=1;jettySize=auto;html=1;exitX=1;exitY=0.5;exitDx=0;exitDy=0;entryX=0.25;entryY=1;entryDx=0;entryDy=0;" edge="1" parent="1" source="se6b7WtIlCDhHFCffmnq-1" target="T7-lwO-HggSbHTCkCa26-15">
          <mxGeometry relative="1" as="geometry">
            <Array as="points">
              <mxPoint x="260" y="1490" />
              <mxPoint x="300" y="1490" />
              <mxPoint x="300" y="1450" />
            </Array>
          </mxGeometry>
        </mxCell>
        <mxCell id="se6b7WtIlCDhHFCffmnq-1" value="Viti Mesimore" style="ellipse;whiteSpace=wrap;html=1;fillColor=#dae8fc;gradientColor=#7ea6e0;strokeColor=#6c8ebf;" vertex="1" parent="1">
          <mxGeometry x="150" y="1500" width="110" height="60" as="geometry" />
        </mxCell>
      </root>
    </mxGraphModel>
  </diagram>
</mxfile>
